PathFileType	4	(X/Y/Z)	C:/Users/opensim2020/Desktop/walking_exp_matlab/subject06_walking17_straight_04.trc																																																																																																																																					
DataRate	CameraRate	NumFrames	NumMarkers	Units	OrigDataRate	OrigDataStartFrame	OrigNumFrames																																																																																																																																	
100	100	4	45	mm	100	4484	318																																																																																																																																	
Frame#	Time	LFHD			RFHD			LBHD			RBHD			C7			T10			CLAV			STRN			RBAK			LSHO			LUPA			LELB			LFRM			LWRA			LWRB			LFIN			RSHO			RUPA			RELB			RFRM			RWRA			RWRB			RFIN			LASI			RASI			LPSI			RPSI			LTHI			LKNE			LTIB			LANK			LHEE			LTOE			RTHI			RKNE			RTIB			RANK			RHEE			RTOE			*39			*40			*41			*42			*43			*44		
		X1	Y1	Z1	X2	Y2	Z2	X3	Y3	Z3	X4	Y4	Z4	X5	Y5	Z5	X6	Y6	Z6	X7	Y7	Z7	X8	Y8	Z8	X9	Y9	Z9	X10	Y10	Z10	X11	Y11	Z11	X12	Y12	Z12	X13	Y13	Z13	X14	Y14	Z14	X15	Y15	Z15	X16	Y16	Z16	X17	Y17	Z17	X18	Y18	Z18	X19	Y19	Z19	X20	Y20	Z20	X21	Y21	Z21	X22	Y22	Z22	X23	Y23	Z23	X24	Y24	Z24	X25	Y25	Z25	X26	Y26	Z26	X27	Y27	Z27	X28	Y28	Z28	X29	Y29	Z29	X30	Y30	Z30	X31	Y31	Z31	X32	Y32	Z32	X33	Y33	Z33	X34	Y34	Z34	X35	Y35	Z35	X36	Y36	Z36	X37	Y37	Z37	X38	Y38	Z38	X39	Y39	Z39	X40	Y40	Z40	X41	Y41	Z41	X42	Y42	Z42	X43	Y43	Z43	X44	Y44	Z44	X45	Y45	Z45
																																																																																																																																								
199	1.98	-60.77032	1666.90186	-1535.77344	-64.8062	1653.28662	-1404.18103	-191.718	1606.21204	-1541.26917	-194.89323	1598.31567	-1412.07092	-187.83945	1448.82654	-1482.50891	-212.39708	1118.39722	-1471.79053	-75.77977	1375.29504	-1481.17236	-30.31033	1201.35327	-1483.23315	-253.87679	1277.66357	-1398.2345	-133.32005	1402.55823	-1643.67224	-155.67311	1200.5636	-1711.96594	-172.60211	1088.55969	-1717.04602	-162.76718	936.6886	-1724.98694	-131.57291	819.70337	-1660.82141	-178.32303	818.32275	-1715.04358	-150.51758	731.88837	-1699.06641	-119.54705	1408.96228	-1320.25586	-152.49107	1211.82922	-1228.24548	-141.13408	1089.86194	-1216.59753	-117.38168	971.84521	-1200.26636	-48.0343	838.27136	-1235.49365	-100.50584	835.3858	-1192.83704	-58.38561	762.08044	-1193.47375	-18.23175	968.14459	-1570.95923	-39.13814	965.81946	-1352.005	-180.06892	989.92664	-1556.50928	-189.40404	984.81067	-1389.00427	-59.96915	653.63892	-1630.73621	-52.01246	489.81259	-1604.53821	-62.57747	233.91127	-1582.53491	-48.46972	66.84748	-1527.36987	-86.21672	53.46213	-1480.16772	99.37782	41.76486	-1522.79724	-96.19822	623.77148	-1299.16138	-89.92406	496.56995	-1311.82263	-280.95978	316.98132	-1325.00293	-418.60922	193.80415	-1374.18103	-458.78189	201.79393	-1423.59155	-339.79776	59.47888	-1370.63477	-164.85698	1699.17041	-1478.98889	NaN	NaN	NaN	NaN	NaN	NaN	NaN	NaN	NaN	NaN	NaN	NaN	NaN	NaN	NaN
200	1.99	-53.96285	1667.56323	-1536.53955	-58.08868	1653.92212	-1404.96106	-184.87279	1606.69531	-1542.13391	-188.04457	1598.81177	-1412.9762	-180.92696	1449.48706	-1483.48071	-205.6134	1119.08557	-1473.01648	-68.85084	1375.90015	-1481.98804	-23.38888	1201.88525	-1484.05969	-247.22166	1278.35693	-1399.68689	-125.78465	1403.3241	-1644.66272	-146.09492	1201.05127	-1713.67773	-161.49452	1088.93591	-1719.50916	-149.85028	937.28394	-1728.29346	-116.95469	820.40662	-1665.23926	-164.13033	818.69867	-1719.09668	-135.25922	732.51398	-1703.80518	-112.95192	1409.45984	-1321.17615	-146.37296	1212.12903	-1229.54993	-134.7352	1090.34546	-1217.6427	-111.26038	972.26868	-1201.10876	-42.5008	838.40649	-1236.20618	-94.70235	835.72565	-1193.573	-52.72092	762.42175	-1194.02441	-11.68089	968.59546	-1571.69434	-32.75649	966.49908	-1352.59741	-173.13934	990.51349	-1557.35095	-182.94414	985.3302	-1389.73889	-54.57926	653.9483	-1631.21899	-47.7426	490.09262	-1604.9408	-60.56461	234.104	-1582.95825	-48.24043	66.91788	-1527.47559	-85.93541	53.41887	-1480.5686	99.68234	41.49187	-1522.65625	-85.7737	624.33496	-1300.01599	-77.35097	497.32962	-1312.89636	-268.37	318.82635	-1325.18774	-406.81366	195.92647	-1373.12024	-447.73514	203.30191	-1422.20825	-326.49316	62.84232	-1368.94666	-158.14513	1699.68201	-1479.86072	NaN	NaN	NaN	NaN	NaN	NaN	NaN	NaN	NaN	NaN	NaN	NaN	NaN	NaN	NaN
201	2	-47.21354	1668.26794	-1537.25793	-51.41913	1654.58984	-1405.70081	-178.07097	1607.16455	-1543.03174	-181.1801	1599.27783	-1413.80334	-174.09842	1450.1969	-1484.65234	-199.00439	1119.85095	-1474.15186	-62.08623	1376.48572	-1482.77271	-16.77302	1202.39038	-1484.85608	-240.73436	1279.05225	-1401.05042	-118.31282	1403.99097	-1645.56665	-136.47725	1201.55151	-1715.34985	-150.45407	1089.33667	-1722.00916	-136.8036	937.94391	-1731.63525	-103.43623	820.91846	-1668.73499	-149.69308	819.05426	-1723.26086	-119.71565	733.33661	-1708.61938	-106.49704	1409.97241	-1322.07825	-139.90181	1212.71118	-1230.50537	-128.5237	1090.84143	-1218.70068	-105.21155	972.73993	-1202.07056	-36.62363	838.7666	-1236.84229	-89.2896	836.15686	-1194.1261	-47.10094	762.85181	-1194.50525	-5.29849	968.98059	-1572.49939	-26.39857	967.17395	-1353.2157	-166.81082	991.17047	-1558.00452	-176.44119	985.87811	-1390.28992	-49.57399	654.27991	-1631.6626	-43.75992	490.38571	-1605.25867	-58.9841	234.37819	-1583.16284	-48.05203	67.03707	-1527.5625	-86.1081	53.80851	-1480.80847	99.76827	41.22643	-1522.68042	-75.49907	625.03741	-1300.90015	-65.14429	498.20969	-1314.00964	-255.9193	320.30539	-1324.98254	-394.53275	197.10764	-1372.03015	-436.05743	203.52318	-1420.94824	-311.90521	65.73073	-1367.32129	-151.47363	1700.22559	-1480.67065	NaN	NaN	NaN	NaN	NaN	NaN	NaN	NaN	NaN	NaN	NaN	NaN	NaN	NaN	NaN
202	2.01	-40.36459	1668.95349	-1537.94385	-44.76829	1655.22046	-1406.37195	-171.28761	1607.85901	-1543.88037	-174.62291	1599.86597	-1414.63196	-167.43576	1450.90515	-1485.74072	-192.5649	1120.61035	-1475.17847	-55.41531	1377.16919	-1483.56897	-10.27302	1202.91724	-1485.64624	-234.34399	1279.80591	-1402.41504	-110.81539	1404.71802	-1646.51038	-126.79369	1202.04834	-1717.01428	-139.22041	1089.80518	-1724.448	-123.67432	938.66632	-1734.88428	-89.16615	821.66168	-1672.66296	-135.23506	819.61383	-1727.13782	-104.52769	733.97736	-1713.24011	-100.2116	1410.5769	-1322.97754	-133.802	1213.28699	-1231.62463	-122.46642	1091.38293	-1219.75281	-99.39732	973.2699	-1203.01819	-31.08671	839.07916	-1237.43567	-83.7244	836.70282	-1194.8894	-41.58163	763.41687	-1194.93701	0.76527	969.388	-1573.37878	-19.9048	967.96454	-1353.85718	-160.63289	991.81531	-1558.48047	-169.923	986.51105	-1390.74353	-45.02194	654.78772	-1631.78857	-40.06796	490.76028	-1605.56274	-57.90533	234.71245	-1583.28479	-48.00246	67.17606	-1527.54944	-86.05296	53.97158	-1480.86072	99.99268	41.09986	-1522.66882	-65.30071	625.87939	-1301.79553	-53.23652	499.27814	-1315.15845	-243.42146	321.24997	-1324.58899	-381.53125	197.31029	-1370.9679	-423.76624	202.72173	-1419.62561	-296.4903	68.07092	-1365.67554	-144.80263	1700.82654	-1481.46423	NaN	NaN	NaN	NaN	NaN	NaN	NaN	NaN	NaN	NaN	NaN	NaN	NaN	NaN	NaN
